<svg xmlns="http://www.w3.org/2000/svg" viewBox="0 0 512.001 512.001">
  <path d="M489.037 238.936c0-34.187-24.124-61.999-53.778-61.999-9.53 0-18.651 2.831-26.672 8.121-10.808-21.246-24.12-40.399-39.706-57.061-4.003-4.28-10.716-4.503-14.994-.501-4.28 4.003-4.503 10.716-.501 14.994 16.818 17.98 31.326 40.134 41.955 64.066 11.741 26.448 18.797 54.575 20.972 83.583.005.075.008.15.015.225.455 6.289.687 12.59.687 18.732 0 62.798-11.715 107.369-35.814 136.257-25.501 30.57-66.455 45.43-125.202 45.43s-99.701-14.861-125.202-45.43c-24.099-28.888-35.814-73.459-35.814-136.257 0-6.206.236-12.574.699-18.911.002-.031.005-.062.007-.092 2.183-29.022 9.24-57.13 20.978-83.543 30.109-67.782 86.101-113.323 139.331-113.323 17.099 0 34.672 4.712 52.232 14.009 5.18 2.741 11.599.765 14.34-4.413 2.741-5.178.766-11.599-4.412-14.34-16.836-8.911-33.846-14.239-50.716-15.905 4.806-29.095 30.121-51.36 60.552-51.36h5.09c5.859 0 10.609-4.75 10.609-10.609 0-5.858-4.75-10.609-10.609-10.609h-5.09c-32.438 0-60.555 18.805-74.061 46.08-10.846-13.779-27.659-22.653-46.515-22.653h-3.43c-5.859 0-10.609 4.75-10.609 10.609s4.75 10.609 10.609 10.609h3.43c17.485 0 32.24 11.883 36.633 27.995-54.073 5.647-108.291 48.946-140.636 112.421-8.032-5.292-17.154-8.124-26.676-8.124-29.653 0-53.778 27.813-53.778 61.999 0 33.09 22.601 60.205 50.941 61.912-.083 2.767-.136 5.523-.136 8.247 0 67.972 13.326 116.987 40.738 149.849C144.286 494.645 190.569 512 255.999 512s111.713-17.355 141.495-53.056c27.413-32.86 40.738-81.877 40.738-149.849 0-2.723-.053-5.479-.136-8.247 28.341-1.706 50.941-28.823 50.941-61.912zM75.354 279.674c-17.312-.913-31.174-18.833-31.174-40.738 0-22.487 14.607-40.782 32.56-40.782 6.298 0 12.394 2.305 17.642 6.572-9.869 23.932-16.249 49.07-19.028 74.948zm361.292 0c-2.777-25.859-9.155-51.001-19.025-74.95 5.234-4.267 11.33-6.57 17.638-6.57 17.953 0 32.56 18.295 32.56 40.782.001 21.905-13.86 39.824-31.173 40.738z"/>
  <path d="M346.007 106.817a189.986 189.986 0 00-2.502-1.957c-4.643-3.57-11.302-2.701-14.876 1.942-3.572 4.644-2.702 11.305 1.941 14.877.747.575 1.49 1.157 2.232 1.746 1.952 1.552 4.282 2.305 6.595 2.305 3.122 0 6.216-1.373 8.31-4.007 3.649-4.586 2.886-11.26-1.7-14.906zM358.492 344.825c18.844-15.384 30.065-38.514 30.065-63.395 0-45.152-36.734-81.885-81.886-81.885-18.636 0-36.292 6.172-50.671 17.557-14.379-11.385-32.035-17.557-50.671-17.557-45.153 0-81.886 36.734-81.886 81.885 0 24.882 11.221 48.012 30.064 63.394-15.104 13.352-23.258 29.469-23.258 46.469 0 13.319 5.14 26.428 14.859 37.902 21.691 25.649 64.183 41.583 110.894 41.583 46.709 0 89.197-15.93 110.887-41.575 9.725-11.481 14.864-24.589 14.864-37.908-.002-17.002-8.157-33.118-23.261-46.47zM255.999 449.561c-33.198 0-64.42-9.206-84.098-24.157 17.377-6.882 49.99-17.636 84.098-17.636 33.997 0 66.67 10.764 84.086 17.646-19.674 14.944-50.892 24.147-84.086 24.147zm99.488-40.769C339.65 401.905 299.47 386.55 256 386.55c-43.47 0-83.651 15.355-99.487 22.242-3.347-5.671-5.048-11.532-5.048-17.498 0-13.757 9.255-27.269 26.059-38.046 3.169-2.032 5.023-5.591 4.874-9.352-.15-3.761-2.281-7.161-5.601-8.935-19.823-10.591-32.137-31.103-32.137-53.531 0-33.452 27.216-60.668 60.669-60.668 16.329 0 31.645 6.398 43.125 18.018a10.6073 10.6073 0 007.546 3.152c2.836 0 5.553-1.135 7.546-3.152 11.481-11.619 26.797-18.018 43.125-18.018 33.452 0 60.669 27.216 60.669 60.668 0 22.429-12.313 42.941-32.137 53.531-3.319 1.774-5.452 5.174-5.601 8.935-.15 3.761 1.705 7.32 4.874 9.352 16.804 10.776 26.059 24.289 26.059 38.046-.001 5.968-1.7 11.827-5.048 17.498z"/>
  <path d="M237.951 331.054c-5.859 0-10.609 4.749-10.609 10.609v10.956c0 5.859 4.75 10.609 10.609 10.609s10.609-4.75 10.609-10.609v-10.956c0-5.86-4.75-10.609-10.609-10.609zM274.049 331.054c-5.859 0-10.609 4.749-10.609 10.609v10.956c0 5.859 4.75 10.609 10.609 10.609s10.609-4.75 10.609-10.609v-10.956c0-5.86-4.75-10.609-10.609-10.609zM314.085 269.825c-16.625 0-30.151 13.53-30.151 30.163 0 5.859 4.749 10.609 10.609 10.609 5.859 0 10.609-4.75 10.609-10.609 0-4.932 4.008-8.945 8.934-8.945 4.932 0 8.945 4.012 8.945 8.945 0 5.859 4.75 10.609 10.609 10.609s10.609-4.75 10.609-10.609c-.001-16.632-13.531-30.163-30.164-30.163zM206.169 269.825c-16.631 0-30.163 13.53-30.163 30.163 0 5.859 4.75 10.609 10.609 10.609s10.609-4.75 10.609-10.609c0-4.932 4.012-8.945 8.945-8.945s8.945 4.012 8.945 8.945c0 5.859 4.75 10.609 10.609 10.609s10.609-4.75 10.609-10.609c0-16.632-13.53-30.163-30.163-30.163z"/>
</svg>