<?xml version="1.0" encoding="iso-8859-1"?>
<!-- Generator: Adobe Illustrator 19.0.0, SVG Export Plug-In . SVG Version: 6.00 Build 0)  -->
<svg version="1.1" id="Layer_1" xmlns="http://www.w3.org/2000/svg" xmlns:xlink="http://www.w3.org/1999/xlink" x="0px" y="0px"
	 viewBox="0 0 512.001 512.001" style="enable-background:new 0 0 512.001 512.001;" xml:space="preserve">
<g>
	<g>
		<path d="M489.037,238.936c0-34.187-24.124-61.999-53.778-61.999c-9.53,0-18.651,2.831-26.672,8.121
			c-10.808-21.246-24.12-40.399-39.706-57.061c-4.003-4.28-10.716-4.503-14.994-0.501c-4.28,4.003-4.503,10.716-0.501,14.994
			c16.818,17.98,31.326,40.134,41.955,64.066c11.741,26.448,18.797,54.575,20.972,83.583c0.005,0.075,0.008,0.15,0.015,0.225
			c0.455,6.289,0.687,12.59,0.687,18.732c0,62.798-11.715,107.369-35.814,136.257c-25.501,30.57-66.455,45.43-125.202,45.43
			c-58.747,0-99.701-14.861-125.202-45.43c-24.099-28.888-35.814-73.459-35.814-136.257c0-6.206,0.236-12.574,0.699-18.911
			c0.002-0.031,0.005-0.062,0.007-0.092c2.183-29.022,9.24-57.13,20.978-83.543c30.109-67.782,86.101-113.323,139.331-113.323
			c17.099,0,34.672,4.712,52.232,14.009c5.18,2.741,11.599,0.765,14.34-4.413c2.741-5.178,0.766-11.599-4.412-14.34
			c-16.836-8.911-33.846-14.239-50.716-15.905c4.806-29.095,30.121-51.36,60.552-51.36h5.09c5.859,0,10.609-4.75,10.609-10.609
			c0-5.858-4.75-10.609-10.609-10.609h-5.09c-32.438,0-60.555,18.805-74.061,46.08c-10.846-13.779-27.659-22.653-46.515-22.653
			h-3.43c-5.859,0-10.609,4.75-10.609,10.609s4.75,10.609,10.609,10.609h3.43c17.485,0,32.24,11.883,36.633,27.995
			c-54.073,5.647-108.291,48.946-140.636,112.421c-8.032-5.292-17.154-8.124-26.676-8.124c-29.653,0-53.778,27.813-53.778,61.999
			c0,33.09,22.601,60.205,50.941,61.912c-0.083,2.767-0.136,5.523-0.136,8.247c0,67.972,13.326,116.987,40.738,149.849
			c29.782,35.701,76.065,53.056,141.495,53.056s111.713-17.355,141.495-53.056c27.413-32.86,40.738-81.877,40.738-149.849
			c0-2.723-0.053-5.479-0.136-8.247C466.437,299.142,489.037,272.025,489.037,238.936z M75.354,279.674
			c-17.312-0.913-31.174-18.833-31.174-40.738c0-22.487,14.607-40.782,32.56-40.782c6.298,0,12.394,2.305,17.642,6.572
			C84.513,228.658,78.133,253.796,75.354,279.674z M436.646,279.674c-2.777-25.859-9.155-51.001-19.025-74.95
			c5.234-4.267,11.33-6.57,17.638-6.57c17.953,0,32.56,18.295,32.56,40.782C467.82,260.841,453.959,278.76,436.646,279.674z"/>
	</g>
</g>
<g>
	<g>
		<path d="M346.007,106.817c-0.831-0.661-1.664-1.313-2.502-1.957c-4.643-3.57-11.302-2.701-14.876,1.942
			c-3.572,4.644-2.702,11.305,1.941,14.877c0.747,0.575,1.49,1.157,2.232,1.746c1.952,1.552,4.282,2.305,6.595,2.305
			c3.122,0,6.216-1.373,8.31-4.007C351.356,117.137,350.593,110.463,346.007,106.817z"/>
	</g>
</g>
<g>
	<g>
		<path d="M358.492,344.825c18.844-15.384,30.065-38.514,30.065-63.395c0-45.152-36.734-81.885-81.886-81.885
			c-18.636,0-36.292,6.172-50.671,17.557c-14.379-11.385-32.035-17.557-50.671-17.557c-45.153,0-81.886,36.734-81.886,81.885
			c0,24.882,11.221,48.012,30.064,63.394c-15.104,13.352-23.258,29.469-23.258,46.469c0,13.319,5.14,26.428,14.859,37.902
			c21.691,25.649,64.183,41.583,110.894,41.583c46.709,0,89.197-15.93,110.887-41.575c9.725-11.481,14.864-24.589,14.864-37.908
			C381.751,374.293,373.596,358.177,358.492,344.825z M255.999,449.561c-33.198,0-64.42-9.206-84.098-24.157
			c17.377-6.882,49.99-17.636,84.098-17.636c33.997,0,66.67,10.764,84.086,17.646C320.411,440.358,289.193,449.561,255.999,449.561z
			 M355.487,408.792c-15.837-6.887-56.017-22.242-99.487-22.242c-43.47,0-83.651,15.355-99.487,22.242
			c-3.347-5.671-5.048-11.532-5.048-17.498c0-13.757,9.255-27.269,26.059-38.046c3.169-2.032,5.023-5.591,4.874-9.352
			c-0.15-3.761-2.281-7.161-5.601-8.935c-19.823-10.591-32.137-31.103-32.137-53.531c0-33.452,27.216-60.668,60.669-60.668
			c16.329,0,31.645,6.398,43.125,18.018c1.993,2.017,4.71,3.152,7.546,3.152c2.836,0,5.553-1.135,7.546-3.152
			c11.481-11.619,26.797-18.018,43.125-18.018c33.452,0,60.669,27.216,60.669,60.668c0,22.429-12.313,42.941-32.137,53.531
			c-3.319,1.774-5.452,5.174-5.601,8.935c-0.15,3.761,1.705,7.32,4.874,9.352c16.804,10.776,26.059,24.289,26.059,38.046
			C360.534,397.262,358.835,403.121,355.487,408.792z"/>
	</g>
</g>
<g>
	<g>
		<path d="M237.951,331.054c-5.859,0-10.609,4.749-10.609,10.609v10.956c0,5.859,4.75,10.609,10.609,10.609
			s10.609-4.75,10.609-10.609v-10.956C248.56,335.803,243.81,331.054,237.951,331.054z"/>
	</g>
</g>
<g>
	<g>
		<path d="M274.049,331.054c-5.859,0-10.609,4.749-10.609,10.609v10.956c0,5.859,4.75,10.609,10.609,10.609
			s10.609-4.75,10.609-10.609v-10.956C284.658,335.803,279.908,331.054,274.049,331.054z"/>
	</g>
</g>
<g>
	<g>
		<path d="M314.085,269.825c-16.625,0-30.151,13.53-30.151,30.163c0,5.859,4.749,10.609,10.609,10.609
			c5.859,0,10.609-4.75,10.609-10.609c0-4.932,4.008-8.945,8.934-8.945c4.932,0,8.945,4.012,8.945,8.945
			c0,5.859,4.75,10.609,10.609,10.609s10.609-4.75,10.609-10.609C344.248,283.356,330.718,269.825,314.085,269.825z"/>
	</g>
</g>
<g>
	<g>
		<path d="M206.169,269.825c-16.631,0-30.163,13.53-30.163,30.163c0,5.859,4.75,10.609,10.609,10.609s10.609-4.75,10.609-10.609
			c0-4.932,4.012-8.945,8.945-8.945s8.945,4.012,8.945,8.945c0,5.859,4.75,10.609,10.609,10.609s10.609-4.75,10.609-10.609
			C236.332,283.356,222.802,269.825,206.169,269.825z"/>
	</g>
</g>
<g>
</g>
<g>
</g>
<g>
</g>
<g>
</g>
<g>
</g>
<g>
</g>
<g>
</g>
<g>
</g>
<g>
</g>
<g>
</g>
<g>
</g>
<g>
</g>
<g>
</g>
<g>
</g>
<g>
</g>
</svg>
